<?xml version="1.0" encoding="UTF-8"?>
<svg width="479.58594" height="349.50586" version="1.1" viewBox="0 0 479.58594 349.50586" xml:space="preserve" xmlns="http://www.w3.org/2000/svg" xmlns:cc="http://creativecommons.org/ns#" xmlns:dc="http://purl.org/dc/elements/1.1/" xmlns:rdf="http://www.w3.org/1999/02/22-rdf-syntax-ns#" xmlns:xlink="http://www.w3.org/1999/xlink"><title>DoD Icon Simple Light</title><metadata><rdf:RDF><cc:Work rdf:about=""><dc:format>image/svg+xml</dc:format><dc:type rdf:resource="http://purl.org/dc/dcmitype/StillImage"/><dc:title>DoD Icon Simple Light</dc:title></cc:Work></rdf:RDF></metadata>
<path d="m239.36 101.37-140.23 33.3 36.35 67.82h207.76l36.359-67.82-140.24-33.3zm42.961 73.841-85.511 0.43945-29.68-31.91 72.229-19.17 72.23 19.16-29.27 31.48z" fill="#ADADAD"/>
<g fill="#FFFFFF">
	<path d="m239.79 47.332c-106.29 0-192.46 57.048-192.46 127.42 0 70.372 86.167 127.42 192.46 127.42s192.46-57.049 192.46-127.42c0-70.373-86.167-127.42-192.46-127.42zm0 6c50.243 0 97.397 12.9 132.78 36.324 34.618 22.919 53.683 53.141 53.683 85.097 0 31.956-19.064 62.179-53.683 85.097-35.38 23.424-82.534 36.324-132.78 36.324s-97.398-12.9-132.78-36.324c-34.618-22.918-53.682-53.141-53.682-85.097 0-31.957 19.064-62.178 53.682-85.097 35.38-23.424 82.535-36.324 132.78-36.324"/>
	<polygon points="292.81 149.66 239.2 133.87 185.92 149.58 195.22 158.91 233.06 147.65 233.06 148.83 235.79 150.56 243.12 150.56 245.85 148.83 245.85 147.7 283.52 158.86"/>
	<path d="m261.59 246.73h-9.1426v-20.396h9.1426v20.396zm-17.918 0h-9.1431v-20.396h9.1431v20.396zm-17.918 0h-9.186v-20.396h9.186v20.396zm123.38-34.513-1.6797 3.3447h-217.1l-1.6797-3.3535-37.434-74.724-0.7002 1.0405v16.595l40.581 87.286h63.898v-15.936l12.774-0.08398v20.344h-3.3223v4.8086h69.383v-4.8086h-3.3213v-20.396h12.453l0.00684 16.071h63.613l41.57-87.286v-16.595l-1.1934-1.7319c-12.522 25.03-37.596 74.921-37.849 75.424z"/>
	<path d="m316.59 143.07 32.87-14.166 27.897 6.7817-5.7539 10.768-55.014-3.3833zm36.812 37.313-66.47-7.919 24.243-26.072 58.144 4.3198-15.917 29.671zm-3.0918 5.7598c-2.1484 4.0234-5.6885 10.619-7.9609 14.849h-51.883c-1.8418-7.7871-3.6836-15.573-5.5254-23.358 21.898 2.6348 43.796 5.2725 65.694 7.9082-0.1084 0.20117-0.2168 0.40039-0.3252 0.60157zm-154.37 14.849 3.9668-23.845c0.13428-0.01172 78.647-0.39648 78.647-0.39648l4.2373 24.241h-86.851zm-7.6733 0h-51.883c-2.2715-4.2295-5.8115-10.825-7.9609-14.849-0.1084-0.20117-0.21631-0.40039-0.32471-0.60156 21.898-2.6357 43.796-5.2734 65.694-7.9082-1.8423 7.7852-3.6841 15.571-5.5254 23.358zm-78.853-50.279 58.144-4.3198 24.243 26.072-66.471 7.919-15.916-29.671zm-8.0391-15.027 27.898-6.7817 32.869 14.166-55.013 3.3833-5.7544-10.768zm102.8-24.483 28.439 13.609-64.141 17.021-32.126-14.647 67.828-15.983zm35.195-8.2817 28.414 6.7988-28.414 13.439-28.415-13.439 28.415-6.7988zm-66.358 43.012c-9.8e-4 -9.8e-4 -0.00195-0.00195-0.00195-0.00244 0.00391 0.00439 66.284-19.497 66.284-19.497l66.261 19.569-24.439 24.734h-83.574l-24.528-24.802c-9.8e-4 -9.8e-4 -0.00195-0.00195-0.00195-0.00293-1e-5 4.8e-4 -1e-5 4.8e-4 -1e-5 9.7e-4zm169.38-18.748-32.126 14.647-64.141-17.021 28.439-13.609 67.827 15.983zm-103.1-26.518c-11.684 2.602-131.1 29.468-143.24 32.191 0 0 25.201 50.306 37.801 75.457h210.85c0.03906 0 25.354-50.448 37.972-75.673-11.023-2.3584-132.25-29.496-143.39-31.975z"/>
</g>
</svg>